<?xml version="1.0" encoding="utf-8"?>
<svg xmlns="http://www.w3.org/2000/svg" viewBox="0 0 30 30" >
  <path d="M17.5 3C15.1 3 13.008812 4.3032813 11.882812 6.2382812C11.444813 6.0962813 10.986 6 10.5 6C8.17 6 6.277875 7.777875 6.046875 10.046875C4.292875 10.224875 2.8425312 11.401 2.2695312 13L9 13C9.553 13 10 13.447 10 14C10 14.553 9.553 15 9 15L5.0507812 15L2 15 A 1.0001 1.0001 0 1 0 2 17L5.7597656 17L12 17L13 17C13.553 17 14 17.447 14 18C14 18.553 13.553 19 13 19L7 19 A 1.0001 1.0001 0 1 0 7 21L19 21 A 1.0001 1.0001 0 1 0 19 19L23.5 19C25.985 19 28 16.985 28 14.5C28 12.177 26.232656 10.287828 23.972656 10.048828C23.987656 9.8678281 24 9.685 24 9.5C24 5.91 21.09 3 17.5 3 z M 3 23 A 1.0001 1.0001 0 1 0 3 25L10 25 A 1.0001 1.0001 0 1 0 10 23L3 23 z" fill="#8391FF" />
</svg>