<?xml version="1.0" encoding="utf-8"?>
<svg xmlns="http://www.w3.org/2000/svg" viewBox="0 0 30 30" >
  <path d="M8.984375 0.98632812 A 1.0001 1.0001 0 0 0 8.8847656 0.9921875 A 1.0001 1.0001 0 0 0 8.6894531 1.0351562 A 1.0001 1.0001 0 0 0 8.5078125 1.1152344 A 1.0001 1.0001 0 0 0 8.2070312 1.3769531 A 1.0001 1.0001 0 0 0 8.1503906 1.4589844 A 1.0001 1.0001 0 0 0 8.1015625 1.5449219 A 1.0001 1.0001 0 0 0 8.0625 1.6367188 A 1.0001 1.0001 0 0 0 8.0117188 1.8300781 A 1.0001 1.0001 0 0 0 8.0019531 1.9296875 A 1.0001 1.0001 0 0 0 8 2L8 3 A 1.0001 1.0001 0 0 0 8.0175781 3.1992188 A 1.0001 1.0001 0 0 0 8.1660156 3.5664062 A 1.0001 1.0001 0 0 0 8.3671875 3.7890625 A 1.0001 1.0001 0 0 0 8.4472656 3.8476562 A 1.0001 1.0001 0 0 0 8.5332031 3.8984375 A 1.0001 1.0001 0 0 0 8.8164062 3.9980469 A 1.0001 1.0001 0 0 0 8.9160156 4.0097656 A 1.0001 1.0001 0 0 0 9.2128906 3.9902344 A 1.0001 1.0001 0 0 0 9.3105469 3.9648438 A 1.0001 1.0001 0 0 0 9.4921875 3.8847656 A 1.0001 1.0001 0 0 0 9.7285156 3.6992188 A 1.0001 1.0001 0 0 0 9.7929688 3.6230469 A 1.0001 1.0001 0 0 0 9.8984375 3.4550781 A 1.0001 1.0001 0 0 0 9.9882812 3.1699219 A 1.0001 1.0001 0 0 0 10 3L10 2 A 1.0001 1.0001 0 0 0 9.9589844 1.703125 A 1.0001 1.0001 0 0 0 9.9257812 1.609375 A 1.0001 1.0001 0 0 0 9.8847656 1.5195312 A 1.0001 1.0001 0 0 0 9.8339844 1.4335938 A 1.0001 1.0001 0 0 0 9.4667969 1.1015625 A 1.0001 1.0001 0 0 0 9.375 1.0585938 A 1.0001 1.0001 0 0 0 9.1835938 1.0019531 A 1.0001 1.0001 0 0 0 9.0839844 0.99023438 A 1.0001 1.0001 0 0 0 8.984375 0.98632812 z M 3.3320312 3.3320312 A 1.0001 1.0001 0 0 0 2.6367188 5.0507812L3.34375 5.7578125 A 1.0001 1.0001 0 1 0 4.7578125 4.34375L4.0507812 3.6367188 A 1.0001 1.0001 0 0 0 3.3320312 3.3320312 z M 14.636719 3.3339844 A 1.0001 1.0001 0 0 0 14.537109 3.3417969 A 1.0001 1.0001 0 0 0 14.34375 3.3867188 A 1.0001 1.0001 0 0 0 14.25 3.4238281 A 1.0001 1.0001 0 0 0 14.162109 3.4707031 A 1.0001 1.0001 0 0 0 13.949219 3.6367188L13.242188 4.34375 A 1.0001 1.0001 0 0 0 13.115234 4.4960938 A 1.0001 1.0001 0 0 0 13.0625 4.5800781 A 1.0001 1.0001 0 0 0 12.984375 4.765625 A 1.0001 1.0001 0 0 0 12.945312 5.1601562 A 1.0001 1.0001 0 0 0 12.984375 5.3554688 A 1.0001 1.0001 0 0 0 13.019531 5.4492188 A 1.0001 1.0001 0 0 0 13.175781 5.7050781 A 1.0001 1.0001 0 0 0 13.318359 5.84375 A 1.0001 1.0001 0 0 0 13.400391 5.9023438 A 1.0001 1.0001 0 0 0 13.486328 5.9511719 A 1.0001 1.0001 0 0 0 13.673828 6.0234375 A 1.0001 1.0001 0 0 0 13.869141 6.0585938 A 1.0001 1.0001 0 0 0 14.068359 6.0507812 A 1.0001 1.0001 0 0 0 14.263672 6.0058594 A 1.0001 1.0001 0 0 0 14.529297 5.8691406 A 1.0001 1.0001 0 0 0 14.65625 5.7578125L15.363281 5.0507812 A 1.0001 1.0001 0 0 0 15.431641 4.9765625 A 1.0001 1.0001 0 0 0 15.492188 4.8964844 A 1.0001 1.0001 0 0 0 15.544922 4.8125 A 1.0001 1.0001 0 0 0 15.587891 4.7226562 A 1.0001 1.0001 0 0 0 15.646484 4.53125 A 1.0001 1.0001 0 0 0 15.662109 4.2324219 A 1.0001 1.0001 0 0 0 15.623047 4.0371094 A 1.0001 1.0001 0 0 0 15.492188 3.7675781 A 1.0001 1.0001 0 0 0 14.933594 3.3691406 A 1.0001 1.0001 0 0 0 14.835938 3.3476562 A 1.0001 1.0001 0 0 0 14.636719 3.3339844 z M 9 6C6.791 6 5 7.791 5 10C5 11.123 5.47175 12.129516 6.21875 12.853516C6.94375 10.079516 9.4512656 8.0279062 12.447266 8.0039062C11.754266 6.8119062 10.478 6 9 6 z M 18.5 8 A 6.5 6.5 0 0 0 13.671875 10.160156 A 4.5 4.5 0 0 0 12.5 10 A 4.5 4.5 0 0 0 8.1992188 13.193359 A 4.5 4.5 0 0 0 9.5 22L23.5 22 A 4.5 4.5 0 0 0 24.865234 13.216797 A 6.5 6.5 0 0 0 18.5 8 z M 1 9 A 1.0001 1.0001 0 1 0 1 11L2 11 A 1.0001 1.0001 0 1 0 2 9L1 9 z M 4.03125 13.939453 A 1.0001 1.0001 0 0 0 3.9316406 13.949219 A 1.0001 1.0001 0 0 0 3.34375 14.242188L2.6367188 14.949219 A 1.0001 1.0001 0 0 0 2.5683594 15.023438 A 1.0001 1.0001 0 0 0 2.4550781 15.1875 A 1.0001 1.0001 0 0 0 2.3769531 15.371094 A 1.0001 1.0001 0 0 0 2.3378906 15.568359 A 1.0001 1.0001 0 0 0 2.3320312 15.667969 A 1.0001 1.0001 0 0 0 2.3535156 15.865234 A 1.0001 1.0001 0 0 0 2.3769531 15.962891 A 1.0001 1.0001 0 0 0 2.4121094 16.056641 A 1.0001 1.0001 0 0 0 2.5683594 16.3125 A 1.0001 1.0001 0 0 0 2.6367188 16.384766 A 1.0001 1.0001 0 0 0 2.7109375 16.451172 A 1.0001 1.0001 0 0 0 2.7929688 16.509766 A 1.0001 1.0001 0 0 0 3.1640625 16.652344 A 1.0001 1.0001 0 0 0 3.2636719 16.664062 A 1.0001 1.0001 0 0 0 3.5605469 16.640625 A 1.0001 1.0001 0 0 0 3.75 16.576172 A 1.0001 1.0001 0 0 0 3.8378906 16.529297 A 1.0001 1.0001 0 0 0 4 16.412109 A 1.0001 1.0001 0 0 0 4.0507812 16.363281L4.7578125 15.65625 A 1.0001 1.0001 0 0 0 4.8261719 15.583984 A 1.0001 1.0001 0 0 0 4.9375 15.419922 A 1.0001 1.0001 0 0 0 5.015625 15.234375 A 1.0001 1.0001 0 0 0 5.0410156 15.138672 A 1.0001 1.0001 0 0 0 4.2304688 13.955078 A 1.0001 1.0001 0 0 0 4.1308594 13.941406 A 1.0001 1.0001 0 0 0 4.03125 13.939453 z M 13.984375 22.986328 A 1.0001 1.0001 0 0 0 13 24L13 25 A 1.0001 1.0001 0 1 0 15 25L15 24 A 1.0001 1.0001 0 0 0 13.984375 22.986328 z M 23.984375 22.986328 A 1.0001 1.0001 0 0 0 23 24L23 25 A 1.0001 1.0001 0 1 0 25 25L25 24 A 1.0001 1.0001 0 0 0 23.984375 22.986328 z M 8.984375 23.986328 A 1.0001 1.0001 0 0 0 8 25L8 26 A 1.0001 1.0001 0 1 0 10 26L10 25 A 1.0001 1.0001 0 0 0 8.984375 23.986328 z M 18.984375 23.986328 A 1.0001 1.0001 0 0 0 18 25L18 26 A 1.0001 1.0001 0 1 0 20 26L20 25 A 1.0001 1.0001 0 0 0 18.984375 23.986328 z" fill="#8391FF" />
</svg>