<?xml version="1.0" encoding="utf-8"?>
<svg xmlns="http://www.w3.org/2000/svg" viewBox="0 0 30 30" >
  <path d="M8.984375 0.98632812 A 1.0001 1.0001 0 0 0 8.6894531 1.0351562 A 1.0001 1.0001 0 0 0 8.5976562 1.0703125 A 1.0001 1.0001 0 0 0 8.5078125 1.1152344 A 1.0001 1.0001 0 0 0 8.2714844 1.3007812 A 1.0001 1.0001 0 0 0 8.1015625 1.5449219 A 1.0001 1.0001 0 0 0 8.0117188 1.8300781 A 1.0001 1.0001 0 0 0 8 2L8 3 A 1.0001 1.0001 0 0 0 8.0742188 3.390625 A 1.0001 1.0001 0 0 0 8.1152344 3.4804688 A 1.0001 1.0001 0 0 0 8.1660156 3.5664062 A 1.0001 1.0001 0 0 0 8.2265625 3.6484375 A 1.0001 1.0001 0 0 0 8.2929688 3.7207031 A 1.0001 1.0001 0 0 0 8.3671875 3.7890625 A 1.0001 1.0001 0 0 0 8.4472656 3.8476562 A 1.0001 1.0001 0 0 0 8.71875 3.9746094 A 1.0001 1.0001 0 0 0 8.9160156 4.0097656 A 1.0001 1.0001 0 0 0 9.1152344 4.0078125 A 1.0001 1.0001 0 0 0 9.2128906 3.9902344 A 1.0001 1.0001 0 0 0 9.4023438 3.9296875 A 1.0001 1.0001 0 0 0 9.5761719 3.8300781 A 1.0001 1.0001 0 0 0 9.9375 3.3632812 A 1.0001 1.0001 0 0 0 10 3L10 2 A 1.0001 1.0001 0 0 0 9.9960938 1.9003906 A 1.0001 1.0001 0 0 0 9.9824219 1.8007812 A 1.0001 1.0001 0 0 0 9.9257812 1.609375 A 1.0001 1.0001 0 0 0 9.8847656 1.5195312 A 1.0001 1.0001 0 0 0 9.7734375 1.3515625 A 1.0001 1.0001 0 0 0 9.7070312 1.2792969 A 1.0001 1.0001 0 0 0 9.6328125 1.2109375 A 1.0001 1.0001 0 0 0 9.5527344 1.1523438 A 1.0001 1.0001 0 0 0 9.4667969 1.1015625 A 1.0001 1.0001 0 0 0 9.28125 1.0253906 A 1.0001 1.0001 0 0 0 9.1835938 1.0019531 A 1.0001 1.0001 0 0 0 8.984375 0.98632812 z M 3.3320312 3.3320312 A 1.0001 1.0001 0 0 0 2.6367188 5.0507812L3.34375 5.7578125 A 1.0001 1.0001 0 1 0 4.7578125 4.34375L4.0507812 3.6367188 A 1.0001 1.0001 0 0 0 3.3320312 3.3320312 z M 14.636719 3.3339844 A 1.0001 1.0001 0 0 0 14.537109 3.3417969 A 1.0001 1.0001 0 0 0 14.439453 3.359375 A 1.0001 1.0001 0 0 0 14.34375 3.3867188 A 1.0001 1.0001 0 0 0 14.25 3.4238281 A 1.0001 1.0001 0 0 0 14.162109 3.4707031 A 1.0001 1.0001 0 0 0 13.949219 3.6367188L13.242188 4.34375 A 1.0001 1.0001 0 0 0 13.0625 4.5800781 A 1.0001 1.0001 0 0 0 12.984375 4.765625 A 1.0001 1.0001 0 0 0 12.984375 5.3554688 A 1.0001 1.0001 0 0 0 13.019531 5.4492188 A 1.0001 1.0001 0 0 0 13.0625 5.5390625 A 1.0001 1.0001 0 0 0 13.115234 5.625 A 1.0001 1.0001 0 0 0 13.578125 5.9921875 A 1.0001 1.0001 0 0 0 13.673828 6.0234375 A 1.0001 1.0001 0 0 0 13.769531 6.0449219 A 1.0001 1.0001 0 0 0 13.869141 6.0585938 A 1.0001 1.0001 0 0 0 13.96875 6.0605469 A 1.0001 1.0001 0 0 0 14.263672 6.0058594 A 1.0001 1.0001 0 0 0 14.357422 5.96875 A 1.0001 1.0001 0 0 0 14.607422 5.8046875 A 1.0001 1.0001 0 0 0 14.65625 5.7578125L15.363281 5.0507812 A 1.0001 1.0001 0 0 0 15.431641 4.9765625 A 1.0001 1.0001 0 0 0 15.544922 4.8125 A 1.0001 1.0001 0 0 0 15.662109 4.4316406 A 1.0001 1.0001 0 0 0 15.662109 4.2324219 A 1.0001 1.0001 0 0 0 15.587891 3.9433594 A 1.0001 1.0001 0 0 0 15.544922 3.8535156 A 1.0001 1.0001 0 0 0 15.492188 3.7675781 A 1.0001 1.0001 0 0 0 15.363281 3.6152344 A 1.0001 1.0001 0 0 0 15.289062 3.5488281 A 1.0001 1.0001 0 0 0 15.121094 3.4414062 A 1.0001 1.0001 0 0 0 14.933594 3.3691406 A 1.0001 1.0001 0 0 0 14.835938 3.3476562 A 1.0001 1.0001 0 0 0 14.636719 3.3339844 z M 9 6C6.791 6 5 7.791 5 10C5 11.123 5.47175 12.129516 6.21875 12.853516C6.94375 10.079516 9.4512656 8.0279062 12.447266 8.0039062C11.754266 6.8119062 10.478 6 9 6 z M 18.5 8C16.576 8 14.851156 8.8409219 13.660156 10.169922C13.288156 10.069922 12.904 10 12.5 10C10.466 10 8.7689375 11.358938 8.2109375 13.210938C6.3589375 13.768937 5 15.466 5 17.5C5 19.985 7.015 22 9.5 22L12.070312 22C11.970313 21.511 11.999172 20.998625 12.201172 20.515625L15.203125 13.511719C15.599125 12.592719 16.500094 11.998047 17.496094 11.998047C17.668094 11.998047 17.840859 12.016781 18.005859 12.050781C19.160859 12.289781 20 13.32 20 14.5L20 17L20.5 17C21.348 17 22.129031 17.422187 22.582031 18.117188C23.046031 18.815188 23.129828 19.694375 22.798828 20.484375L22.148438 22L24 22L24 21.949219C26.247 21.697219 28 19.814 28 17.5C28 15.498 26.683 13.820328 24.875 13.236328C24.287 10.251328 21.657 8 18.5 8 z M 1 9 A 1.0001 1.0001 0 1 0 1 11L2 11 A 1.0001 1.0001 0 1 0 2 9L1 9 z M 4.03125 13.939453 A 1.0001 1.0001 0 0 0 3.7363281 13.994141 A 1.0001 1.0001 0 0 0 3.5546875 14.076172 A 1.0001 1.0001 0 0 0 3.4707031 14.130859 A 1.0001 1.0001 0 0 0 3.34375 14.242188L2.6367188 14.949219 A 1.0001 1.0001 0 0 0 2.4550781 15.1875 A 1.0001 1.0001 0 0 0 2.3378906 15.767578 A 1.0001 1.0001 0 0 0 2.3535156 15.865234 A 1.0001 1.0001 0 0 0 2.4121094 16.056641 A 1.0001 1.0001 0 0 0 2.4550781 16.146484 A 1.0001 1.0001 0 0 0 2.5683594 16.3125 A 1.0001 1.0001 0 0 0 2.6367188 16.384766 A 1.0001 1.0001 0 0 0 2.7109375 16.451172 A 1.0001 1.0001 0 0 0 2.7929688 16.509766 A 1.0001 1.0001 0 0 0 2.8789062 16.558594 A 1.0001 1.0001 0 0 0 2.9707031 16.599609 A 1.0001 1.0001 0 0 0 3.1640625 16.652344 A 1.0001 1.0001 0 0 0 3.2636719 16.664062 A 1.0001 1.0001 0 0 0 3.4628906 16.658203 A 1.0001 1.0001 0 0 0 4 16.412109 A 1.0001 1.0001 0 0 0 4.0507812 16.363281L4.7578125 15.65625 A 1.0001 1.0001 0 0 0 5.015625 15.234375 A 1.0001 1.0001 0 0 0 5.0546875 15.039062 A 1.0001 1.0001 0 0 0 5.0605469 14.939453 A 1.0001 1.0001 0 0 0 5.0546875 14.839844 A 1.0001 1.0001 0 0 0 5.0410156 14.740234 A 1.0001 1.0001 0 0 0 4.9804688 14.550781 A 1.0001 1.0001 0 0 0 4.6816406 14.15625 A 1.0001 1.0001 0 0 0 4.5996094 14.097656 A 1.0001 1.0001 0 0 0 4.421875 14.007812 A 1.0001 1.0001 0 0 0 4.1308594 13.941406 A 1.0001 1.0001 0 0 0 4.03125 13.939453 z M 17.425781 14.003906C17.256422 14.028187 17.109563 14.139234 17.039062 14.302734L14.039062 21.302734C13.974063 21.457734 13.989031 21.634391 14.082031 21.775391C14.174031 21.915391 14.332 22 14.5 22L17 22L17 26.5C17 26.737 17.166438 26.942234 17.398438 26.990234C17.433438 26.997234 17.467 27 17.5 27C17.697 27 17.880937 26.884266 17.960938 26.697266L20.960938 19.697266C21.025937 19.542266 21.010969 19.364609 20.917969 19.224609C20.825969 19.083609 20.668 19 20.5 19L18 19L18 14.5C18 14.263 17.833562 14.057766 17.601562 14.009766C17.541812 13.997266 17.482234 13.995812 17.425781 14.003906 z M 12.023438 23.986328 A 1.0001 1.0001 0 0 0 11.054688 24.671875L10.708984 25.671875 A 1.0001 1.0001 0 1 0 12.597656 26.328125L12.945312 25.328125 A 1.0001 1.0001 0 0 0 12.023438 23.986328 z M 23.023438 23.986328 A 1.0001 1.0001 0 0 0 22.054688 24.671875L21.708984 25.671875 A 1.0001 1.0001 0 1 0 23.597656 26.328125L23.945312 25.328125 A 1.0001 1.0001 0 0 0 23.023438 23.986328 z" fill="#8391FF" />
</svg>