<?xml version="1.0" encoding="utf-8"?>
<svg xmlns="http://www.w3.org/2000/svg" viewBox="0 0 30 30" >
  <path d="M8.984375 0.98632812 A 1.0001 1.0001 0 0 0 8.6894531 1.0351562 A 1.0001 1.0001 0 0 0 8.5976562 1.0703125 A 1.0001 1.0001 0 0 0 8.5078125 1.1152344 A 1.0001 1.0001 0 0 0 8.2714844 1.3007812 A 1.0001 1.0001 0 0 0 8.1015625 1.5449219 A 1.0001 1.0001 0 0 0 8.0117188 1.8300781 A 1.0001 1.0001 0 0 0 8 2L8 3 A 1.0001 1.0001 0 0 0 8.0742188 3.390625 A 1.0001 1.0001 0 0 0 8.1152344 3.4804688 A 1.0001 1.0001 0 0 0 8.1660156 3.5664062 A 1.0001 1.0001 0 0 0 8.2265625 3.6484375 A 1.0001 1.0001 0 0 0 8.2929688 3.7207031 A 1.0001 1.0001 0 0 0 8.3671875 3.7890625 A 1.0001 1.0001 0 0 0 8.4472656 3.8476562 A 1.0001 1.0001 0 0 0 8.71875 3.9746094 A 1.0001 1.0001 0 0 0 8.9160156 4.0097656 A 1.0001 1.0001 0 0 0 9.1152344 4.0078125 A 1.0001 1.0001 0 0 0 9.2128906 3.9902344 A 1.0001 1.0001 0 0 0 9.4023438 3.9296875 A 1.0001 1.0001 0 0 0 9.5761719 3.8300781 A 1.0001 1.0001 0 0 0 9.9375 3.3632812 A 1.0001 1.0001 0 0 0 10 3L10 2 A 1.0001 1.0001 0 0 0 9.9960938 1.9003906 A 1.0001 1.0001 0 0 0 9.9824219 1.8007812 A 1.0001 1.0001 0 0 0 9.9257812 1.609375 A 1.0001 1.0001 0 0 0 9.8847656 1.5195312 A 1.0001 1.0001 0 0 0 9.7734375 1.3515625 A 1.0001 1.0001 0 0 0 9.7070312 1.2792969 A 1.0001 1.0001 0 0 0 9.6328125 1.2109375 A 1.0001 1.0001 0 0 0 9.5527344 1.1523438 A 1.0001 1.0001 0 0 0 9.4667969 1.1015625 A 1.0001 1.0001 0 0 0 9.28125 1.0253906 A 1.0001 1.0001 0 0 0 9.1835938 1.0019531 A 1.0001 1.0001 0 0 0 8.984375 0.98632812 z M 3.3320312 3.3320312 A 1.0001 1.0001 0 0 0 2.6367188 5.0507812L3.34375 5.7578125 A 1.0001 1.0001 0 1 0 4.7578125 4.34375L4.0507812 3.6367188 A 1.0001 1.0001 0 0 0 3.3320312 3.3320312 z M 14.636719 3.3339844 A 1.0001 1.0001 0 0 0 14.537109 3.3417969 A 1.0001 1.0001 0 0 0 14.439453 3.359375 A 1.0001 1.0001 0 0 0 14.34375 3.3867188 A 1.0001 1.0001 0 0 0 14.25 3.4238281 A 1.0001 1.0001 0 0 0 14.162109 3.4707031 A 1.0001 1.0001 0 0 0 13.949219 3.6367188L13.242188 4.34375 A 1.0001 1.0001 0 0 0 13.0625 4.5800781 A 1.0001 1.0001 0 0 0 12.984375 4.765625 A 1.0001 1.0001 0 0 0 12.984375 5.3554688 A 1.0001 1.0001 0 0 0 13.019531 5.4492188 A 1.0001 1.0001 0 0 0 13.0625 5.5390625 A 1.0001 1.0001 0 0 0 13.115234 5.625 A 1.0001 1.0001 0 0 0 13.578125 5.9921875 A 1.0001 1.0001 0 0 0 13.673828 6.0234375 A 1.0001 1.0001 0 0 0 13.769531 6.0449219 A 1.0001 1.0001 0 0 0 13.869141 6.0585938 A 1.0001 1.0001 0 0 0 13.96875 6.0605469 A 1.0001 1.0001 0 0 0 14.263672 6.0058594 A 1.0001 1.0001 0 0 0 14.357422 5.96875 A 1.0001 1.0001 0 0 0 14.607422 5.8046875 A 1.0001 1.0001 0 0 0 14.65625 5.7578125L15.363281 5.0507812 A 1.0001 1.0001 0 0 0 15.431641 4.9765625 A 1.0001 1.0001 0 0 0 15.544922 4.8125 A 1.0001 1.0001 0 0 0 15.662109 4.4316406 A 1.0001 1.0001 0 0 0 15.662109 4.2324219 A 1.0001 1.0001 0 0 0 15.587891 3.9433594 A 1.0001 1.0001 0 0 0 15.544922 3.8535156 A 1.0001 1.0001 0 0 0 15.492188 3.7675781 A 1.0001 1.0001 0 0 0 15.363281 3.6152344 A 1.0001 1.0001 0 0 0 15.289062 3.5488281 A 1.0001 1.0001 0 0 0 15.121094 3.4414062 A 1.0001 1.0001 0 0 0 14.933594 3.3691406 A 1.0001 1.0001 0 0 0 14.835938 3.3476562 A 1.0001 1.0001 0 0 0 14.636719 3.3339844 z M 9 6C6.791 6 5 7.791 5 10C5 11.123 5.47175 12.129516 6.21875 12.853516C6.94375 10.079516 9.4512656 8.0279062 12.447266 8.0039062C11.754266 6.8119062 10.478 6 9 6 z M 18.5 8C16.576 8 14.851156 8.8409219 13.660156 10.169922C13.288156 10.069922 12.904 10 12.5 10C10.466 10 8.7689375 11.358938 8.2109375 13.210938C6.3589375 13.768937 5 15.466 5 17.5C5 19.985 7.015 22 9.5 22L23 22L24 21.949219C26.247 21.697219 28 19.814 28 17.5C28 15.498 26.683 13.820328 24.875 13.236328C24.287 10.251328 21.657 8 18.5 8 z M 1 9 A 1.0001 1.0001 0 1 0 1 11L2 11 A 1.0001 1.0001 0 1 0 2 9L1 9 z M 19 12C19.553 12 20 12.447 20 13L20 13.767578L20.664062 13.384766C21.140062 13.108766 21.75425 13.271 22.03125 13.75C22.30725 14.229 22.142062 14.839234 21.664062 15.115234L21 15.5L21.664062 15.884766C22.143062 16.160766 22.30825 16.772 22.03125 17.25C21.84525 17.571 21.510063 17.75 21.164062 17.75C20.994062 17.75 20.821063 17.706234 20.664062 17.615234L20 17.232422L20 18C20 18.553 19.553 19 19 19C18.447 19 18 18.553 18 18L18 17.232422L17.335938 17.615234C17.178937 17.706234 17.005938 17.75 16.835938 17.75C16.489937 17.75 16.15375 17.571 15.96875 17.25C15.69275 16.771 15.857938 16.160766 16.335938 15.884766L17 15.5L16.335938 15.115234C15.856938 14.839234 15.69175 14.228 15.96875 13.75C16.24475 13.271 16.858938 13.107766 17.335938 13.384766L18 13.767578L18 13C18 12.447 18.447 12 19 12 z M 4.03125 13.939453 A 1.0001 1.0001 0 0 0 3.7363281 13.994141 A 1.0001 1.0001 0 0 0 3.5546875 14.076172 A 1.0001 1.0001 0 0 0 3.4707031 14.130859 A 1.0001 1.0001 0 0 0 3.34375 14.242188L2.6367188 14.949219 A 1.0001 1.0001 0 0 0 2.4550781 15.1875 A 1.0001 1.0001 0 0 0 2.3378906 15.767578 A 1.0001 1.0001 0 0 0 2.3535156 15.865234 A 1.0001 1.0001 0 0 0 2.4121094 16.056641 A 1.0001 1.0001 0 0 0 2.4550781 16.146484 A 1.0001 1.0001 0 0 0 2.5683594 16.3125 A 1.0001 1.0001 0 0 0 2.6367188 16.384766 A 1.0001 1.0001 0 0 0 2.7109375 16.451172 A 1.0001 1.0001 0 0 0 2.7929688 16.509766 A 1.0001 1.0001 0 0 0 2.8789062 16.558594 A 1.0001 1.0001 0 0 0 2.9707031 16.599609 A 1.0001 1.0001 0 0 0 3.1640625 16.652344 A 1.0001 1.0001 0 0 0 3.2636719 16.664062 A 1.0001 1.0001 0 0 0 3.4628906 16.658203 A 1.0001 1.0001 0 0 0 4 16.412109 A 1.0001 1.0001 0 0 0 4.0507812 16.363281L4.7578125 15.65625 A 1.0001 1.0001 0 0 0 5.015625 15.234375 A 1.0001 1.0001 0 0 0 5.0546875 15.039062 A 1.0001 1.0001 0 0 0 5.0605469 14.939453 A 1.0001 1.0001 0 0 0 5.0546875 14.839844 A 1.0001 1.0001 0 0 0 5.0410156 14.740234 A 1.0001 1.0001 0 0 0 4.9804688 14.550781 A 1.0001 1.0001 0 0 0 4.6816406 14.15625 A 1.0001 1.0001 0 0 0 4.5996094 14.097656 A 1.0001 1.0001 0 0 0 4.421875 14.007812 A 1.0001 1.0001 0 0 0 4.1308594 13.941406 A 1.0001 1.0001 0 0 0 4.03125 13.939453 z M 13.990234 23.986328 A 1.0001 1.0001 0 0 0 13.292969 24.292969L13 24.585938L12.707031 24.292969 A 1.0001 1.0001 0 0 0 11.990234 23.990234 A 1.0001 1.0001 0 0 0 11.292969 25.707031L11.585938 26L11.292969 26.292969 A 1.0001 1.0001 0 1 0 12.707031 27.707031L13 27.414062L13.292969 27.707031 A 1.0001 1.0001 0 1 0 14.707031 26.292969L14.414062 26L14.707031 25.707031 A 1.0001 1.0001 0 0 0 13.990234 23.986328 z" fill="#8391FF" />
</svg>