<?xml version="1.0" encoding="utf-8"?>
<svg xmlns="http://www.w3.org/2000/svg" viewBox="0 0 30 30" >
  <path d="M17.5 3C15.1 3 13.008812 4.3032813 11.882812 6.2382812C11.444813 6.0962813 10.986 6 10.5 6C8.17 6 6.277875 7.777875 6.046875 10.046875C3.777875 10.277875 2 12.17 2 14.5C2 16.985 4.015 19 6.5 19L23.5 19C25.985 19 28 16.985 28 14.5C28 12.177 26.232656 10.287828 23.972656 10.048828C23.987656 9.8678281 24 9.685 24 9.5C24 5.91 21.09 3 17.5 3 z M 17 8C17.553 8 18 8.448 18 9L18 10.267578L19.097656 9.6347656C19.574656 9.3587656 20.188844 9.522 20.464844 10C20.740844 10.478 20.575656 11.089234 20.097656 11.365234L19 12L20.097656 12.634766C20.576656 12.910766 20.741844 13.522 20.464844 14C20.278844 14.321 19.943656 14.5 19.597656 14.5C19.427656 14.5 19.254656 14.456234 19.097656 14.365234L18 13.732422L18 15C18 15.552 17.553 16 17 16C16.447 16 16 15.552 16 15L16 13.732422L14.902344 14.365234C14.745344 14.456234 14.572344 14.5 14.402344 14.5C14.056344 14.5 13.720156 14.321 13.535156 14C13.259156 13.522 13.424344 12.910766 13.902344 12.634766L15 12L13.902344 11.365234C13.424344 11.089234 13.259156 10.478 13.535156 10C13.811156 9.521 14.424344 9.3587656 14.902344 9.6347656L16 10.267578L16 9C16 8.448 16.447 8 17 8 z M 8.984375 19.986328 A 1.0001 1.0001 0 0 0 8 21L8 22.269531L6.9023438 21.634766 A 1.0001 1.0001 0 1 0 5.9023438 23.365234L7.0019531 24L5.9023438 24.634766 A 1.0001 1.0001 0 1 0 6.9023438 26.365234L8 25.730469L8 27 A 1.0001 1.0001 0 1 0 10 27L10 25.730469L11.097656 26.365234 A 1.0001 1.0001 0 1 0 12.097656 24.634766L10.998047 24L12.097656 23.365234 A 1.0001 1.0001 0 1 0 11.097656 21.634766L10 22.269531L10 21 A 1.0001 1.0001 0 0 0 8.984375 19.986328 z M 21.984375 21.986328 A 1.0001 1.0001 0 0 0 21 23L21 23.269531L20.767578 23.134766 A 1.0001 1.0001 0 1 0 19.767578 24.865234L20.001953 25L19.767578 25.134766 A 1.0001 1.0001 0 1 0 20.767578 26.865234L21 26.730469L21 27 A 1.0001 1.0001 0 1 0 23 27L23 26.730469L23.232422 26.865234 A 1.0001 1.0001 0 1 0 24.232422 25.134766L23.998047 25L24.232422 24.865234 A 1.0001 1.0001 0 1 0 23.232422 23.134766L23 23.269531L23 23 A 1.0001 1.0001 0 0 0 21.984375 21.986328 z" fill="#8391FF" />
</svg>