<?xml version="1.0" encoding="utf-8"?>
<svg xmlns="http://www.w3.org/2000/svg" viewBox="0 0 30 30" >
  <path d="M3.9648438 2.9941406 A 1.0001 1.0001 0 0 0 3.5527344 4.8945312L4 5.1171875L4 20C4 20.552 4.448 21 5 21C5.552 21 6 20.552 6 20L6 16C6 15.448 6.448 15 7 15C7.552 15 8 15.448 8 16L8 24C8 24.552 8.448 25 9 25C9.552 25 10 24.552 10 24L10 12C10 11.448 10.448 11 11 11C11.552 11 12 11.448 12 12L12 20C12 20.552 12.448 21 13 21C13.552 21 14 20.552 14 20L14 17C14 16.448 14.448 16 15 16C15.552 16 16 16.448 16 17L16 26C16 26.552 16.448 27 17 27C17.552 27 18 26.552 18 26L18 16C18 15.448 18.448 15 19 15C19.552 15 20 15.448 20 16L20 23C20 23.552 20.448 24 21 24C21.552 24 22 23.552 22 23L22 19C22 18.448 22.448 18 23 18C23.552 18 24 18.448 24 19L24 24C24 24.552 24.448 25 25 25C25.552 25 26 24.552 26 24L26 16 A 1.0001163 1.0001163 0 0 0 26.447266 14.105469L4.4472656 3.1054688 A 1.0001 1.0001 0 0 0 3.9648438 2.9941406 z" fill="#8391FF" />
</svg>