<?xml version="1.0" encoding="utf-8"?>
<svg xmlns="http://www.w3.org/2000/svg" viewBox="0 0 30 30" >
  <path d="M17.5 3C15.1 3 13.008812 4.3032813 11.882812 6.2382812C11.444813 6.0962813 10.986 6 10.5 6C8.17 6 6.277875 7.777875 6.046875 10.046875C3.777875 10.277875 2 12.17 2 14.5C2 16.985 4.015 19 6.5 19L23.5 19C25.985 19 28 16.985 28 14.5C28 12.177 26.232656 10.287828 23.972656 10.048828C23.987656 9.8678281 24 9.685 24 9.5C24 5.91 21.09 3 17.5 3 z M 9.984375 19.986328 A 1.0001 1.0001 0 0 0 9 21L9 22.269531L7.9023438 21.634766 A 1.0001 1.0001 0 1 0 6.9023438 23.365234L8.0019531 24L6.9023438 24.634766 A 1.0001 1.0001 0 1 0 7.9023438 26.365234L9 25.730469L9 27 A 1.0001 1.0001 0 1 0 11 27L11 25.730469L12.097656 26.365234 A 1.0001 1.0001 0 1 0 13.097656 24.634766L11.998047 24L13.097656 23.365234 A 1.0001 1.0001 0 1 0 12.097656 21.634766L11 22.269531L11 21 A 1.0001 1.0001 0 0 0 9.984375 19.986328 z M 22.984375 20.986328 A 1.0001 1.0001 0 0 0 22 22L22 24 A 1.0001 1.0001 0 1 0 24 24L24 22 A 1.0001 1.0001 0 0 0 22.984375 20.986328 z M 17.984375 21.986328 A 1.0001 1.0001 0 0 0 17 23L17 25 A 1.0001 1.0001 0 1 0 19 25L19 23 A 1.0001 1.0001 0 0 0 17.984375 21.986328 z" fill="#8391FF" />
</svg>