<?xml version="1.0" encoding="utf-8"?>
<svg xmlns="http://www.w3.org/2000/svg" viewBox="0 0 30 30" >
  <path d="M8 3C6.9069372 3 6 3.9069372 6 5L6 12.921875C4.224767 14.388628 3 16.521961 3 19C3 23.406438 6.593562 27 11 27C15.406438 27 19 23.406438 19 19C19 16.521961 17.775233 14.388628 16 12.921875L16 5C16 3.9069372 15.093063 3 14 3L8 3 z M 21.5 3C21.5 3 20 5.672 20 6.5C20 7.328 20.672 8 21.5 8C22.328 8 23 7.328 23 6.5C23 5.672 21.5 3 21.5 3 z M 8 5L14 5L14 13.78125L14.427734 14.080078C15.982629 15.165587 17 16.955053 17 19C17 22.325562 14.325562 25 11 25C7.674438 25 5 22.325562 5 19C5 16.955053 6.0173711 15.165587 7.5722656 14.080078L8 13.78125L8 5 z M 10 8L10 15.130859 A 4 4 0 0 0 7 19 A 4 4 0 0 0 11 23 A 4 4 0 0 0 15 19 A 4 4 0 0 0 12 15.132812L12 8L10 8 z M 26 9C26 9 24 11.895 24 13C24 14.105 24.895 15 26 15C27.105 15 28 14.105 28 13C28 11.895 26 9 26 9 z M 24.5 18C24.5 18 23 20.672 23 21.5C23 22.328 23.672 23 24.5 23C25.328 23 26 22.328 26 21.5C26 20.672 24.5 18 24.5 18 z" fill="#8391FF" />
</svg>