<?xml version="1.0" encoding="utf-8"?>
<svg xmlns="http://www.w3.org/2000/svg" viewBox="0 0 30 30" >
  <path d="M17 3C11.272536 3 6.5583785 7.4024418 6.0507812 13L3 13 A 1.0001 1.0001 0 1 0 3 15L6.0507812 15L13 15C13.553 15 14 15.447 14 16C14 16.553 13.553 17 13 17L7 17 A 1.0001 1.0001 0 1 0 7 19L16 19C16.553 19 17 19.447 17 20C17 20.553 16.553 21 16 21L13 21L4 21 A 1.0001 1.0001 0 1 0 4 23L13 23C13.553 23 14 23.447 14 24C14 24.199 13.926172 24.373297 13.826172 24.529297C14.832172 24.833297 15.897 25 17 25C22.414 25 27.088094 20.959562 27.871094 15.601562C27.923094 15.249562 27.783859 14.895828 27.505859 14.673828C27.228859 14.451828 26.853484 14.397438 26.521484 14.523438C25.705484 14.839438 24.856 15 24 15C20.141 15 17 11.859 17 8C17 6.778 17.325406 5.5698594 17.941406 4.5058594C18.114406 4.2078594 18.101406 3.8411094 17.941406 3.5371094C17.780406 3.2321094 17.457234 3.0318594 17.115234 3.0058594C17.089234 3.0038594 17.025 3 17 3 z" fill="#8391FF" />
</svg>