<?xml version="1.0" encoding="utf-8"?>
<svg xmlns="http://www.w3.org/2000/svg" viewBox="0 0 30 30" >
  <path d="M8.984375 1.9863281 A 1.0001 1.0001 0 0 0 8 3L8 4 A 1.0001 1.0001 0 1 0 10 4L10 3 A 1.0001 1.0001 0 0 0 8.984375 1.9863281 z M 3.3320312 4.3320312 A 1.0001 1.0001 0 0 0 2.6367188 6.0507812L3.34375 6.7578125 A 1.0001 1.0001 0 1 0 4.7578125 5.34375L4.0507812 4.6367188 A 1.0001 1.0001 0 0 0 3.3320312 4.3320312 z M 14.636719 4.3339844 A 1.0001 1.0001 0 0 0 13.949219 4.6367188L13.242188 5.34375 A 1.0001 1.0001 0 0 0 13.857422 7.0625 A 1.0001 1.0001 0 0 0 13.958984 7.0644531 A 1.0001 1.0001 0 0 0 14.65625 6.7578125L15.363281 6.0507812 A 1.0001 1.0001 0 0 0 14.636719 4.3339844 z M 9 7C6.791 7 5 8.791 5 11C5 12.903 6.3313281 14.488578 8.1113281 14.892578C9.1603281 13.319578 10.875797 12.257641 12.841797 12.056641C12.934797 11.718641 13 11.368 13 11C13 8.791 11.209 7 9 7 z M 1 10 A 1.0001 1.0001 0 1 0 1 12L2 12 A 1.0001 1.0001 0 1 0 2 10L1 10 z M 20.5 11 A 6.5 6.5 0 0 0 14.892578 14.224609 A 4.5 4.5 0 0 0 13.5 14 A 4.5 4.5 0 0 0 9.0117188 18.259766 A 4.5 4.5 0 0 0 6 22.5 A 4.5 4.5 0 0 0 10.5 27L25.5 27 A 4.5 4.5 0 0 0 30 22.5 A 4.5 4.5 0 0 0 26.953125 18.246094 A 6.5 6.5 0 0 0 27 17.5 A 6.5 6.5 0 0 0 20.5 11 z M 4.03125 14.939453 A 1.0001 1.0001 0 0 0 3.34375 15.242188L2.6367188 15.949219 A 1.0001 1.0001 0 1 0 4.0507812 17.363281L4.7578125 16.65625 A 1.0001 1.0001 0 0 0 4.03125 14.939453 z" fill="#8391FF" />
</svg>