<?xml version="1.0" encoding="utf-8"?>
<svg xmlns="http://www.w3.org/2000/svg" viewBox="0 0 30 30">
  <path d="M14.984375 0.98632812 A 1.0001 1.0001 0 0 0 14 2L14 5 A 1.0001 1.0001 0 1 0 16 5L16 2 A 1.0001 1.0001 0 0 0 14.984375 0.98632812 z M 5.796875 4.7988281 A 1.0001 1.0001 0 0 0 5.1015625 6.515625L7.2226562 8.6367188 A 1.0001 1.0001 0 1 0 8.6367188 7.2226562L6.515625 5.1015625 A 1.0001 1.0001 0 0 0 5.796875 4.7988281 z M 24.171875 4.7988281 A 1.0001 1.0001 0 0 0 23.484375 5.1015625L21.363281 7.2226562 A 1.0001 1.0001 0 1 0 22.777344 8.6367188L24.898438 6.515625 A 1.0001 1.0001 0 0 0 24.171875 4.7988281 z M 14.746094 8.0039062C11.335715 8.1260227 8.5547785 10.691035 8.0800781 14L3 14 A 1.0001 1.0001 0 1 0 3 16L8.0800781 16L16 16C16.553 16 17 16.447 17 17C17 17.553 16.553 18 16 18L8.6835938 18L8 18 A 1.0001 1.0001 0 1 0 8 20L10.105469 20L18.974609 20L19 20 A 1.0001 1.0001 0 0 0 19.259766 19.96875C19.764944 19.89741 20.235857 19.650579 20.550781 19.242188C21.706781 17.741187 22.273094 15.765531 21.871094 13.644531C21.349094 10.891531 19.142625 8.6637656 16.390625 8.1347656C15.831125 8.0271406 15.281512 7.9847344 14.746094 8.0039062 z M 25 14 A 1.0001 1.0001 0 1 0 25 16L28 16 A 1.0001 1.0001 0 1 0 28 14L25 14 z M 22.060547 21.060547 A 1.0001 1.0001 0 0 0 21.363281 22.777344L23.484375 24.898438 A 1.0001 1.0001 0 1 0 24.898438 23.484375L22.777344 21.363281 A 1.0001 1.0001 0 0 0 22.060547 21.060547 z M 5 22 A 1.0001 1.0001 0 1 0 5 24L16 24 A 1.0001 1.0001 0 1 0 16 22L5 22 z M 14.984375 25.986328 A 1.0001 1.0001 0 0 0 14.839844 26L14 26L14 28 A 1.0001 1.0001 0 1 0 16 28L16 27L16 26L15.154297 26 A 1.0001 1.0001 0 0 0 14.984375 25.986328 z" fill="#8391FF" />
</svg>