<?xml version="1.0" encoding="utf-8"?>
<svg xmlns="http://www.w3.org/2000/svg" viewBox="0 0 30 30">
  <path d="M15 3C8.3844276 3 3 8.3844276 3 15C3 21.615572 8.3844276 27 15 27C21.615572 27 27 21.615572 27 15C27 8.3844276 21.615572 3 15 3 z M 15 5C20.534692 5 25 9.4653079 25 15C25 20.534692 20.534692 25 15 25C9.4653079 25 5 20.534692 5 15C5 9.4653079 9.4653079 5 15 5 z M 10.5 13 A 1.5 1.5 0 0 0 9 14.5 A 1.5 1.5 0 0 0 10.5 16 A 1.5 1.5 0 0 0 12 14.5 A 1.5 1.5 0 0 0 10.5 13 z M 19.5 13 A 1.5 1.5 0 0 0 18 14.5 A 1.5 1.5 0 0 0 19.5 16 A 1.5 1.5 0 0 0 21 14.5 A 1.5 1.5 0 0 0 19.5 13 z M 15 18C13.483333 18 12.278452 18.606368 11.474609 19.191406 A 1.0002946 1.0002946 0 0 0 12.652344 20.808594C13.222501 20.393632 14.016667 20 15 20C15.983333 20 16.777499 20.393632 17.347656 20.808594 A 1.0002946 1.0002946 0 1 0 18.525391 19.191406C17.721548 18.606368 16.516667 18 15 18 z" fill="#94A0FF" />
</svg>