<?xml version="1.0" encoding="utf-8"?>
<svg xmlns="http://www.w3.org/2000/svg" viewBox="0 0 30 30" >
  <path d="M17.5 3 A 6.5 6.5 0 0 0 11.892578 6.2246094 A 4.5 4.5 0 0 0 10.5 6 A 4.5 4.5 0 0 0 6.0273438 10.03125 A 4.5 4.5 0 0 0 2 14.5 A 4.5 4.5 0 0 0 6.5 19L23.5 19 A 4.5 4.5 0 0 0 28 14.5 A 4.5 4.5 0 0 0 23.972656 10.027344 A 6.5 6.5 0 0 0 24 9.5 A 6.5 6.5 0 0 0 17.5 3 z M 5.984375 20.986328 A 1.0001 1.0001 0 0 0 5 22L5 23 A 1.0001 1.0001 0 1 0 7 23L7 22 A 1.0001 1.0001 0 0 0 5.984375 20.986328 z M 17.984375 20.986328 A 1.0001 1.0001 0 0 0 17 22L17 23 A 1.0001 1.0001 0 1 0 19 23L19 22 A 1.0001 1.0001 0 0 0 17.984375 20.986328 z M 11.984375 22.986328 A 1.0001 1.0001 0 0 0 11 24L11 25 A 1.0001 1.0001 0 1 0 13 25L13 24 A 1.0001 1.0001 0 0 0 11.984375 22.986328 z M 23.984375 22.986328 A 1.0001 1.0001 0 0 0 23 24L23 25 A 1.0001 1.0001 0 1 0 25 25L25 24 A 1.0001 1.0001 0 0 0 23.984375 22.986328 z" fill="#8391FF" />
</svg>