<?xml version="1.0" encoding="utf-8"?>
<svg xmlns="http://www.w3.org/2000/svg" viewBox="0 0 30 30">
  <path d="M17.5 3C15.1 3 13.008812 4.3032813 11.882812 6.2382812C11.444813 6.0962813 10.986 6 10.5 6C8.17 6 6.277875 7.777875 6.046875 10.046875C3.777875 10.277875 2 12.17 2 14.5C2 16.985 4.015 19 6.5 19L23.5 19C25.985 19 28 16.985 28 14.5C28 12.177 26.232656 10.287828 23.972656 10.048828C23.987656 9.8678281 24 9.685 24 9.5C24 5.91 21.09 3 17.5 3 z M 9.9902344 20.986328 A 1.0001 1.0001 0 0 0 9.2929688 21.292969L9 21.585938L8.7070312 21.292969 A 1.0001 1.0001 0 0 0 7.9902344 20.990234 A 1.0001 1.0001 0 0 0 7.2929688 22.707031L7.5859375 23L7.2929688 23.292969 A 1.0001 1.0001 0 1 0 8.7070312 24.707031L9 24.414062L9.2929688 24.707031 A 1.0001 1.0001 0 1 0 10.707031 23.292969L10.414062 23L10.707031 22.707031 A 1.0001 1.0001 0 0 0 9.9902344 20.986328 z M 19.984375 21.986328 A 1.0001 1.0001 0 0 0 19 23L19 23.269531L18.767578 23.134766 A 1.0001 1.0001 0 1 0 17.767578 24.865234L18.001953 25L17.767578 25.134766 A 1.0001 1.0001 0 1 0 18.767578 26.865234L19 26.730469L19 27 A 1.0001 1.0001 0 1 0 21 27L21 26.730469L21.232422 26.865234 A 1.0001 1.0001 0 1 0 22.232422 25.134766L21.998047 25L22.232422 24.865234 A 1.0001 1.0001 0 1 0 21.232422 23.134766L21 23.269531L21 23 A 1.0001 1.0001 0 0 0 19.984375 21.986328 z" fill="#8391FF" />
</svg>