<?xml version="1.0" encoding="utf-8"?>
<svg xmlns="http://www.w3.org/2000/svg" viewBox="0 0 30 30" >
  <path d="M8.5136719 3.046875 A 1.0001 1.0001 0 0 0 8.4335938 3.0507812C5.3980951 3.339132 3 5.8892308 3 9C3 10.574112 3.6175159 12.00727 4.6171875 13.080078C3.6339019 13.899532 3 15.11811 3 16.5C3 18.985 5.015 21 7.5 21L22.5 21C24.985 21 27 18.985 27 16.5C27 14.535 25.731562 12.881578 23.976562 12.267578C23.853562 9.8925781 21.906 8 19.5 8C19.014 8 18.555188 8.0962813 18.117188 8.2382812C16.991187 6.3032812 14.9 5 12.5 5C11.209979 5 10.011452 5.3801109 9.0019531 6.0292969C9.0018572 6.019295 9 6.0100264 9 6C9 5.4758733 9.1462539 4.989825 9.4003906 4.5390625 A 1.0001 1.0001 0 0 0 8.5136719 3.046875 z M 25.984375 4.9863281 A 1.0001 1.0001 0 0 0 25 6 A 1.0001 1.0001 0 1 0 25 8 A 1.0001 1.0001 0 1 0 27 8 A 1.0001 1.0001 0 1 0 27 6 A 1.0001 1.0001 0 0 0 25.984375 4.9863281 z M 7.1367188 5.4941406C7.1156199 5.674507 7 5.8132397 7 6C7 8.7495161 9.2504839 11 12 11C12.18676 11 12.325493 10.88438 12.505859 10.863281C11.84329 12.131864 10.539523 13 9 13C6.7796254 13 5 11.220375 5 9C5 7.4604772 5.8681356 6.1567102 7.1367188 5.4941406 z M 7.984375 22.986328 A 1.0001 1.0001 0 0 0 7 24L7 25 A 1.0001 1.0001 0 1 0 9 25L9 24 A 1.0001 1.0001 0 0 0 7.984375 22.986328 z M 14.984375 22.986328 A 1.0001 1.0001 0 0 0 14 24L14 24.269531L13.767578 24.134766 A 1.0001 1.0001 0 1 0 12.767578 25.865234L13.001953 26L12.767578 26.134766 A 1.0001 1.0001 0 1 0 13.767578 27.865234L14 27.730469L14 28 A 1.0001 1.0001 0 1 0 16 28L16 27.730469L16.232422 27.865234 A 1.0001 1.0001 0 1 0 17.232422 26.134766L16.998047 26L17.232422 25.865234 A 1.0001 1.0001 0 1 0 16.232422 24.134766L16 24.269531L16 24 A 1.0001 1.0001 0 0 0 14.984375 22.986328 z M 21.984375 22.986328 A 1.0001 1.0001 0 0 0 21 24L21 25 A 1.0001 1.0001 0 1 0 23 25L23 24 A 1.0001 1.0001 0 0 0 21.984375 22.986328 z" fill="#8391FF" />
</svg>