<?xml version="1.0" encoding="utf-8"?>
<svg xmlns="http://www.w3.org/2000/svg" viewBox="0 0 30 30" >
  <path d="M9 3C7.9069372 3 7 3.9069372 7 5L7 12.921875C5.224767 14.388628 4 16.521961 4 19C4 23.406438 7.593562 27 12 27C16.406438 27 20 23.406438 20 19C20 16.521961 18.775233 14.388628 17 12.921875L17 5C17 3.9069372 16.093063 3 15 3L9 3 z M 23.666016 3C23.298016 3 23 3.2989688 23 3.6679688L23 4.1425781C22.288 4.3265781 21.648438 4.6902188 21.148438 5.1992188L20.746094 4.96875C20.427094 4.78475 20.019938 4.8938906 19.835938 5.2128906L19.503906 5.7890625C19.319906 6.1080625 19.427094 6.5171719 19.746094 6.7011719L20.160156 6.9394531C20.066156 7.2774531 20 7.63 20 8C20 8.37 20.065156 8.7225 20.160156 9.0625L19.746094 9.3007812C19.427094 9.4847812 19.319906 9.8919375 19.503906 10.210938L19.835938 10.789062C20.019938 11.108063 20.427094 11.217203 20.746094 11.033203L21.148438 10.800781C21.648438 11.309781 22.288 11.674375 23 11.859375L23 12.333984C23 12.701984 23.298969 13 23.667969 13L24.333984 13C24.701984 13 25 12.701031 25 12.332031L25 11.857422C25.712 11.672422 26.351562 11.309781 26.851562 10.800781L27.253906 11.03125C27.572906 11.21525 27.980062 11.106109 28.164062 10.787109L28.496094 10.210938C28.680094 9.8919375 28.572906 9.4828281 28.253906 9.2988281L27.839844 9.0605469C27.933844 8.7225469 28 8.37 28 8C28 7.63 27.934844 7.2775 27.839844 6.9375L28.253906 6.6992188C28.572906 6.5152187 28.680094 6.1080625 28.496094 5.7890625L28.164062 5.2109375C27.980062 4.8919375 27.572906 4.7827969 27.253906 4.9667969L26.851562 5.1992188C26.351562 4.6902188 25.712 4.325625 25 4.140625L25 3.6679688C25 3.2989688 24.701031 3 24.332031 3L23.666016 3 z M 9 5L15 5L15 13.78125L15.427734 14.080078C16.982629 15.165587 18 16.955053 18 19C18 22.325562 15.325562 25 12 25C8.674438 25 6 22.325562 6 19C6 16.955053 7.0173711 15.165587 8.5722656 14.080078L9 13.78125L9 5 z M 24 6C25.105 6 26 6.895 26 8C26 9.105 25.105 10 24 10C22.895 10 22 9.105 22 8C22 6.895 22.895 6 24 6 z M 11 8L11 15.130859 A 4 4 0 0 0 8 19 A 4 4 0 0 0 12 23 A 4 4 0 0 0 16 19 A 4 4 0 0 0 13 15.132812L13 8L11 8 z" fill="#8391FF" />
</svg>