<?xml version="1.0" encoding="utf-8"?>
<svg xmlns="http://www.w3.org/2000/svg" viewBox="0 0 30 30" >
  <path d="M8.5136719 3.046875 A 1.0001 1.0001 0 0 0 8.4335938 3.0507812C5.3980951 3.339132 3 5.8892308 3 9C3 10.574112 3.6175159 12.00727 4.6171875 13.080078C3.6339019 13.899532 3 15.11811 3 16.5C3 18.985 5.015 21 7.5 21L11.064453 21C11.097453 20.837 11.135172 20.673625 11.201172 20.515625L14.203125 13.511719C14.599125 12.592719 15.499094 11.998047 16.496094 11.998047C16.668094 11.998047 16.840859 12.016781 17.005859 12.050781C18.160859 12.289781 19 13.32 19 14.5L19 17L19.5 17C20.348 17 21.129031 17.422187 21.582031 18.117188C22.046031 18.815188 22.130828 19.694375 21.798828 20.484375L21.576172 21L22.5 21C24.985 21 27 18.985 27 16.5C27 14.535 25.731562 12.881578 23.976562 12.267578C23.853562 9.8925781 21.906 8 19.5 8C19.014 8 18.555188 8.0962813 18.117188 8.2382812C16.991187 6.3032812 14.9 5 12.5 5C11.209979 5 10.011452 5.3801109 9.0019531 6.0292969C9.0018572 6.019295 9 6.0100264 9 6C9 5.4758733 9.1462539 4.989825 9.4003906 4.5390625 A 1.0001 1.0001 0 0 0 8.5136719 3.046875 z M 25.984375 4.9863281 A 1.0001 1.0001 0 0 0 25 6 A 1.0001 1.0001 0 1 0 25 8 A 1.0001 1.0001 0 1 0 27 8 A 1.0001 1.0001 0 1 0 27 6 A 1.0001 1.0001 0 0 0 25.984375 4.9863281 z M 7.1367188 5.4941406C7.1156199 5.674507 7 5.8132397 7 6C7 8.7495161 9.2504839 11 12 11C12.18676 11 12.325493 10.88438 12.505859 10.863281C11.84329 12.131864 10.539523 13 9 13C6.7796254 13 5 11.220375 5 9C5 7.4604772 5.8681356 6.1567102 7.1367188 5.4941406 z M 16.425781 14.003906C16.256422 14.028187 16.109563 14.139234 16.039062 14.302734L13.039062 21.302734C12.974063 21.457734 12.989031 21.634391 13.082031 21.775391C13.174031 21.915391 13.332 22 13.5 22L16 22L16 26.5C16 26.737 16.166438 26.942234 16.398438 26.990234C16.433438 26.997234 16.467 27 16.5 27C16.697 27 16.880937 26.884266 16.960938 26.697266L19.960938 19.697266C20.025937 19.542266 20.010969 19.364609 19.917969 19.224609C19.825969 19.083609 19.668 19 19.5 19L17 19L17 14.5C17 14.263 16.833562 14.057766 16.601562 14.009766C16.541812 13.997266 16.482234 13.995812 16.425781 14.003906 z M 11.023438 23.986328 A 1.0001 1.0001 0 0 0 10.054688 24.671875L9.7089844 25.671875 A 1.0001 1.0001 0 1 0 11.597656 26.328125L11.945312 25.328125 A 1.0001 1.0001 0 0 0 11.023438 23.986328 z M 22.023438 23.986328 A 1.0001 1.0001 0 0 0 21.054688 24.671875L20.708984 25.671875 A 1.0001 1.0001 0 1 0 22.597656 26.328125L22.945312 25.328125 A 1.0001 1.0001 0 0 0 22.023438 23.986328 z" fill="#8391FF" />
</svg>